<svg xmlns="http://www.w3.org/2000/svg" xmlns:svg="http://www.w3.org/2000/svg" xmlns:xlink="http://www.w3.org/1999/xlink" version="1.0" height="876.0999999999999pt" width="885.0000020265579pt" viewBox="80 207 893.0000020265579 882.0999999999999" ><defs><style type="text/css">
            @font-face {
                font-family: 'noto_regular';
                src: url('https://app.creately.com/diagram/assets/fonts/noto/noto-regular.woff') format('woff'),
                     url('https://app.creately.com/diagram/assets/fonts/noto/noto-regular.woff2') format('woff2');
                font-weight: normal;
                font-style: normal;
            }
        p {
            margin: 0;
        }
        </style></defs><defs><style>
            span{ display: inline-block; }
        </style></defs><g id="1t4cs2s9ng"><g transform="translate(470 725)"><path d="M 89.7,18 C 89.7,27.6 69.80000000000001,35.3 45.2,35.3 C 20.599999999999994,35.3 0.7,27.6 0.7,18 L 0.7,43.4 C 0.7,53 20.599999999999998,60.7 45.2,60.7 C 69.80000000000001,60.7 89.7,52.900000000000006 89.7,43.400000000000006 L 89.7,18" fill="rgb(0, 126, 186)"/><path d="M 0.2,0.2 L 89.8,0.2 L 89.8,60.8 L 0.2,60.8 L 0.2,0.2" fill="rgb(0, 0, 0)"/><path d="M 89.7,18 C 89.7,27.6 69.80000000000001,35.3 45.2,35.3 C 20.599999999999994,35.3 0.7,27.6 0.7,18 L 0.7,43.4 C 0.7,53 20.599999999999998,60.7 45.2,60.7 C 69.80000000000001,60.7 89.7,52.900000000000006 89.7,43.400000000000006 L 89.7,18 L 89.7,18 Z" fill="none" stroke="rgb(255, 255, 255)" stroke-width="0.4"/><path d="M 45.2,35.4 C 69.80000000000001,35.4 89.7,27.599999999999998 89.7,18.099999999999998 C 89.7,8.499999999999998 69.80000000000001,0.7999999999999972 45.2,0.7999999999999972 C 20.599999999999994,0.7999999999999972 0.7,8.6 0.7,18.1 C 0.7,27.6 20.6,35.4 45.2,35.4" fill="rgb(0, 126, 186)"  stroke-width="0.4"/><path d="M 0.2,0.2 L 89.8,0.2 L 89.8,60.8 L 0.2,60.8 L 0.2,0.2" fill="rgb(0, 0, 0)"  stroke-width="0.4"/><path d="M 45.2,35.4 C 69.80000000000001,35.4 89.7,27.599999999999998 89.7,18.099999999999998 C 89.7,8.499999999999998 69.80000000000001,0.7999999999999972 45.2,0.7999999999999972 C 20.599999999999994,0.7999999999999972 0.7,8.6 0.7,18.1 C 0.7,27.6 20.6,35.4 45.2,35.4 L 45.2,35.4 Z" fill="none" stroke="rgb(255, 255, 255)" stroke-width="0.4"/><path d="M 35,11.3 L 38.7,16.8 L 24.8,20 L 27.8,17.5 L 6.3,13.8 L 11.7,9.8 L 32.5,13.3 L 35,11.3" fill="rgb(255, 255, 255)"  stroke-width="0.4"/><path d="M 54.6,24.6 L 52.1,19 L 64.6,16.4 L 62.4,18.4 L 83.4,22 L 78.3,26 L 57.6,22.1 L 54.6,24.6" fill="rgb(255, 255, 255)"  stroke-width="0.4"/><path d="M 47.7,8.3 L 61.8,4.4 L 61.9,10.4 L 58.4,9.8 L 51.6,15.4 L 45,14.5 L 52.1,8.9 L 47.7,8.3" fill="rgb(255, 255, 255)"  stroke-width="0.4"/><path d="M 41.7,29.8 L 28.3,32.3 L 27.8,26.1 L 31.7,27 L 39,20.7 L 45.6,21.8 L 37.7,28.7 L 41.7,29.8" fill="rgb(255, 255, 255)"  stroke-width="0.4"/></g></g><g id="26w9ifhp2a"><g><path d="M 195,585 L 195,755 L 470,755" fill="none" stroke="#a0a0a0" stroke-width="1.5" stroke-linecap="round" stroke-linejoin="round"/></g></g><g id="1avtebjg63"><g transform="translate(360 715)"><rect x="0" y="0" width="129.99933063983917" height="30.19977557659149" fill="rgba(255,255,255,0.01)" stroke="rgba(255,255,255,0.01)" stroke-width="NaN" stroke-linecap="round" stroke-linejoin="round"/></g><g transform="translate(370.9996653199196, 712.5998877882957) rotate(0, 54, 17.5)" width="108" height="35"><text text-decoration="none" x="7.5" fill="rgb(75, 75, 75)" font-size="10pt" font-family="Lato"  y="14">192.168.100.254</text><text text-decoration="none" x="100.5" fill="rgb(75, 75, 75)" font-size="10pt" font-family="Lato"  y="14"></text><text text-decoration="none" x="44.5" fill="rgb(75, 75, 75)" font-size="10pt" font-family="Lato"  y="36">/24</text><text text-decoration="none" x="63.5" fill="#4b4b4b" font-size="10pt" font-family="noto_regular"  y="36"></text></g></g><g id="22bykwvt7c"><g transform="translate(430 210) rotate(-1.6788078675687103e-15)"><rect x="0" y="0" width="484.9987487792969" height="42.678863525390625" fill="rgba(255,255,255,0.01)" stroke="rgba(255,255,255,0.01)" stroke-width="NaN" stroke-linecap="round" stroke-linejoin="round"/></g><g transform="translate(519.4993743896484, 217.3394317626953) rotate(0, 153, 14)" width="306" height="28"><text text-decoration="underline" x="12" fill="rgb(75, 75, 75)" font-weight="bold" font-size="18pt" font-family="Lato"  y="26">New&#160;</text><text text-decoration="underline" x="73" fill="rgb(75, 75, 75)" font-weight="bold" font-size="18pt" font-family="Lato"  y="26">Network&#160;</text><text text-decoration="underline" x="185" fill="rgb(75, 75, 75)" font-weight="bold" font-size="18pt" font-family="Lato"  y="26">Topology</text><text text-decoration="none" x="294" fill="#4b4b4b" font-size="10pt" font-family="noto_regular"  y="26"></text></g></g><g id="gmywy82ltt"><g transform="translate(885 650)"><path d="M 85.00000202655792,26.11111011505127 L 64.54237442016601,26.11111011505127 L 64.54237442016601,12.777777290344238 L 51.576272416114804,0 L 20.457627606391906,0 L 20.457627606391906,26.11111011505127 L 0,26.11111011505127 L 0,59.444442176818846 L 20.457627606391906,59.444442176818846 L 20.457627606391906,64.99999752044677 L 64.54237442016601,64.99999752044677 L 64.54237442016601,59.444442176818846 L 85.00000202655792,59.444442176818846 L 85.00000202655792,26.11111011505127 Z M 51.28813681602478,3.0555554389953614 L 60.79661161899567,12.499999523162842 L 51.28813681602478,12.499999523162842 L 51.28813681602478,3.0555554389953614 Z M 23.05084800720215,2.222222137451172 L 48.983052015304565,2.222222137451172 L 48.983052015304565,14.722221660614013 L 62.237289619445804,14.722221660614013 L 62.237289619445804,24.999999046325684 L 23.05084800720215,24.999999046325684 L 23.05084800720215,2.222222137451172 Z M 62.237289619445804,62.77777538299561 L 23.05084800720215,62.77777538299561 L 23.05084800720215,59.722219944000244 L 23.05084800720215,59.722219944000244 L 23.05084800720215,43.33333168029785 L 62.237289619445804,43.33333168029785 L 62.237289619445804,57.77777557373047 L 62.237289619445804,57.77777557373047 L 62.237289619445804,62.77777538299561 Z M 74.91525602340698,40.83333177566528 C 72.32203562259674,40.83333177566528 70.30508642196655,38.88888740539551 70.30508642196655,36.38888750076294 C 70.30508642196655,33.88888759613037 72.32203562259673,31.944443225860596 74.91525602340698,31.944443225860596 C 77.50847642421722,31.944443225860596 79.52542562484741,33.88888759613037 79.52542562484741,36.38888750076294 C 79.23729002475739,38.88888740539551 77.2203408241272,40.83333177566528 74.91525602340698,40.83333177566528 Z" fill="rgb(126, 126, 126)"/></g><g transform="translate(904.35, 724.95) rotate(0, 0, 0)" width="45" height="19"><text text-decoration="none" x="0" fill="#4b4b4b" font-size="11pt" font-family="Lato"  y="17">C360&#160;</text><text text-decoration="none" x="40" fill="#4b4b4b" font-size="10pt" font-family="noto_regular"  y="17"></text></g></g><g id="2popj1ax8z"><g transform="translate(670 850)"><path d="M 1.6,16.4 L 21.4,1.7 L 93.7,1.7 L 79.4,16.4 L 1.6,16.4" fill="rgb(0, 126, 186)" stroke="rgb(255, 255, 255)" stroke-width="1" stroke-miterlimit="10"/><path d="M 0,0.5 L 95,0.5 L 95,41.7 L 0,41.7 Z" fill="rgb(0, 0, 0)"  stroke-width="1" stroke-miterlimit="10"/><path d="M 1.6,16.4 L 21.4,1.7 L 93.7,1.7 L 79.4,16.4 Z" fill="none" stroke="rgb(255, 255, 255)" stroke-width="0.4"/><path d="M 79.4,41.6 L 93.7,26.9 L 93.7,1.7 L 79.4,16.4 L 79.4,41.6" fill="rgb(0, 126, 186)" stroke="rgb(255, 255, 255)" stroke-width="1" stroke-miterlimit="10"/><path d="M 0,0.5 L 95,0.5 L 95,41.7 L 0,41.7 Z" fill="rgb(0, 0, 0)"  stroke-width="1" stroke-miterlimit="10"/><path d="M 79.4,41.6 L 93.7,26.9 L 93.7,1.7 L 79.4,16.4 Z" fill="none" stroke="rgb(255, 255, 255)" stroke-width="0.4"/><path d="M 79.4,41.6 L 79.4,16.4 L 1.7,16.4 L 1.7,41.6 L 79.4,41.6" fill="rgb(0, 126, 186)" stroke="rgb(255, 255, 255)" stroke-width="1" stroke-miterlimit="10"/><path d="M 0,0.5 L 95,0.5 L 95,41.7 L 0,41.7 Z" fill="rgb(0, 0, 0)"  stroke-width="1" stroke-miterlimit="10"/><path d="M 79.4,41.6 L 79.4,16.4 L 1.7,16.4 L 1.7,41.6 Z" fill="none" stroke="rgb(255, 255, 255)" stroke-width="0.4"/><path d="M 0,0.5 L 95,0.5 L 95,41.7 L 0,41.7 Z" fill="rgb(0, 0, 0)"  stroke-width="0.4"/><path d="M 73.2,29.1 C 73.2,29.1 68.2,42.1 62.1,29 C 56.1,16 51,29 51,29 C 51,29 46,42 39.9,29 C 33.9,16 28.9,29.1 28.9,29.1 C 28.9,29.1 23.9,42.1 17.799999999999997,29.1 C 11.699999999999998,16.1 6.6999999999999975,29 6.6999999999999975,29" fill="none" stroke="rgb(255, 255, 255)" stroke-width="0.45" stroke-linecap="round" stroke-miterlimit="1"/><path d="M 0,0.5 L 95,0.5 L 95,41.7 L 0,41.7 Z" fill="rgb(0, 0, 0)"  stroke-width="0.45" stroke-linecap="round" stroke-miterlimit="1"/><path d="M 6.6,29.1 C 6.6,29.1 11.6,42.1 17.7,29 C 23.7,16 28.799999999999997,29 28.799999999999997,29 C 28.799999999999997,29 33.8,42 39.9,29 C 45.9,16 50.9,29.1 50.9,29.1 C 50.9,29.1 55.9,42.1 62,29.1 C 68,16.1 73.1,29 73.1,29" fill="none" stroke="rgb(255, 255, 255)" stroke-width="0.9" stroke-linecap="round" stroke-miterlimit="1"/><path d="M 0,0.5 L 95,0.5 L 95,41.7 L 0,41.7 Z" fill="rgb(0, 0, 0)"  stroke-width="0.9" stroke-linecap="round" stroke-miterlimit="1"/><path d="M 74.3,29.1 C 74.3,29.1 69.3,42.1 63.199999999999996,29 C 57.199999999999996,16 52.099999999999994,29 52.099999999999994,29 C 52.099999999999994,29 47.099999999999994,42 40.99999999999999,29 C 34.99999999999999,16 29.999999999999993,29.1 29.999999999999993,29.1 C 29.999999999999993,29.1 24.999999999999993,42.1 18.89999999999999,29.1 C 12.899999999999991,16.1 7.8999999999999915,29 7.8999999999999915,29" fill="none" stroke="rgb(35, 31, 32)" stroke-width="0.45" stroke-linecap="round" stroke-miterlimit="1"/><path d="M 0,0.5 L 95,0.5 L 95,41.7 L 0,41.7 Z" fill="rgb(0, 0, 0)"  stroke-width="0.45" stroke-linecap="round" stroke-miterlimit="1"/><path d="M 7.8,29.1 C 7.8,29.1 12.8,42.1 18.9,29 C 24.9,16 30,29 30,29 C 30,29 35,42 41.1,29 C 47.1,16 52.1,29.1 52.1,29.1 C 52.1,29.1 57.1,42.1 63.2,29.1 C 69.2,16.1 74.3,29 74.3,29" fill="none" stroke="rgb(35, 31, 32)" stroke-width="0.9" stroke-linecap="round" stroke-miterlimit="1"/><path d="M 0,0.5 L 95,0.5 L 95,41.7 L 0,41.7 Z" fill="rgb(0, 0, 0)"  stroke-width="0.9" stroke-linecap="round" stroke-miterlimit="1"/><path d="M 73.2,29.1 C 73.2,29.1 68.2,42.1 62.1,29 C 56.1,16 51,29 51,29 C 51,29 46,42 39.9,29 C 33.9,16 28.9,29.1 28.9,29.1 C 28.9,29.1 23.9,42.1 17.799999999999997,29.1 C 11.699999999999998,16.1 6.6999999999999975,29 6.6999999999999975,29" fill="none" stroke="rgb(255, 255, 255)" stroke-width="0.45" stroke-linecap="round" stroke-miterlimit="1"/><path d="M 0,0.5 L 95,0.5 L 95,41.7 L 0,41.7 Z" fill="rgb(0, 0, 0)"  stroke-width="0.45" stroke-linecap="round" stroke-miterlimit="1"/><path d="M 6.6,29.1 C 6.6,29.1 11.6,42.1 17.7,29 C 23.7,16 28.799999999999997,29 28.799999999999997,29 C 28.799999999999997,29 33.8,42 39.9,29 C 45.9,16 50.9,29.1 50.9,29.1 C 50.9,29.1 55.9,42.1 62,29.1 C 68,16.1 73.1,29 73.1,29" fill="none" stroke="rgb(255, 255, 255)" stroke-width="0.9" stroke-linecap="round" stroke-miterlimit="1"/><path d="M 0,0.5 L 95,0.5 L 95,41.7 L 0,41.7 Z" fill="rgb(0, 0, 0)"  stroke-width="0.9" stroke-linecap="round" stroke-miterlimit="1"/><path d="M 74.3,29.1 C 74.3,29.1 69.3,42.1 63.199999999999996,29 C 57.199999999999996,16 52.099999999999994,29 52.099999999999994,29 C 52.099999999999994,29 47.099999999999994,42 40.99999999999999,29 C 34.99999999999999,16 29.999999999999993,29.1 29.999999999999993,29.1 C 29.999999999999993,29.1 24.999999999999993,42.1 18.89999999999999,29.1 C 12.899999999999991,16.1 7.8999999999999915,29 7.8999999999999915,29" fill="none" stroke="rgb(35, 31, 32)" stroke-width="0.45" stroke-linecap="round" stroke-miterlimit="1"/><path d="M 0,0.5 L 95,0.5 L 95,41.7 L 0,41.7 Z" fill="rgb(0, 0, 0)"  stroke-width="0.45" stroke-linecap="round" stroke-miterlimit="1"/><path d="M 7.8,29.1 C 7.8,29.1 12.8,42.1 18.9,29 C 24.9,16 30,29 30,29 C 30,29 35,42 41.1,29 C 47.1,16 52.1,29.1 52.1,29.1 C 52.1,29.1 57.1,42.1 63.2,29.1 C 69.2,16.1 74.3,29 74.3,29" fill="none" stroke="rgb(35, 31, 32)" stroke-width="0.9" stroke-linecap="round" stroke-miterlimit="1"/><path d="M 0,0.5 L 95,0.5 L 95,41.7 L 0,41.7 Z" fill="rgb(0, 0, 0)"  stroke-width="0.9" stroke-linecap="round" stroke-miterlimit="1"/><path d="M 73.2,29.1 C 73.2,29.1 68.2,42.1 62.1,29 C 56.1,16 51,29 51,29 C 51,29 46,42 39.9,29 C 33.9,16 28.9,29.1 28.9,29.1 C 28.9,29.1 23.9,42.1 17.799999999999997,29.1 C 11.699999999999998,16.1 6.6999999999999975,29 6.6999999999999975,29" fill="none" stroke="rgb(255, 255, 255)" stroke-width="2" stroke-linecap="round" stroke-miterlimit="1"/><path d="M 0,0.5 L 95,0.5 L 95,41.7 L 0,41.7 Z" fill="rgb(0, 0, 0)"  stroke-width="2" stroke-linecap="round" stroke-miterlimit="1"/><path d="M 6.6,29.1 C 6.6,29.1 11.6,42.1 17.7,29 C 23.7,16 28.799999999999997,29 28.799999999999997,29 C 28.799999999999997,29 33.8,42 39.9,29 C 45.9,16 50.9,29.1 50.9,29.1 C 50.9,29.1 55.9,42.1 62,29.1 C 68,16.1 73.1,29 73.1,29" fill="none" stroke="rgb(255, 255, 255)" stroke-width="2" stroke-linecap="round" stroke-miterlimit="1"/></g><g transform="translate(673.15, 901.8) rotate(0, 0, 0)" width="92" height="19"><text text-decoration="none" x="0" fill="#000000" font-size="11pt" font-family="Lato"  y="17">Wireless&#160;</text><text text-decoration="none" x="62" fill="#000000" font-size="11pt" font-family="Lato"  y="17">AP&#160;</text><text text-decoration="none" x="85" fill="#4b4b4b" font-size="10pt" font-family="noto_regular"  y="17"></text></g></g><g id="8cyo0owshe"><g transform="translate(720 360)"><path d="M 34.3,10.8 L 0.2,10.8 L 0.2,59.8 L 34.3,59.8" fill="rgb(0, 126, 186)" stroke="rgb(255, 255, 255)" stroke-width="0.4"/><path d="M 34.3,59.8 L 45.2,49 L 45.2,0 L 11.1,0 L 0.2,10.8 L 34.3,10.8 Z" fill="rgb(0, 126, 186)" stroke="rgb(255, 255, 255)" stroke-width="0.4"/><path d="M 34.3,10.8 L 45.2,0" fill="none" stroke="rgb(255, 255, 255)" stroke-width="0.4"/><path d="M 0.8,24.3 L 34,24.3 M 0.8,39.9 L 34,39.9 M 12,33.6 L 21.7,33.6 M 12,30.7 L 21.7,30.7 M 25.4,36.9 L 25.4,27.599999999999998 L 8.1,27.599999999999998 L 8.1,36.9 L 25.4,36.9 L 25.4,36.9 Z" fill="none" stroke="rgb(255, 255, 255)" stroke-width="0.4"/></g><g transform="translate(724.75, 430.6) rotate(0, 0, 0)" width="30" height="19"><text text-decoration="none" x="0" fill="#000000" font-size="11pt" font-family="Lato"  y="17">File&#160;</text><text text-decoration="none" x="28" fill="#4b4b4b" font-size="10pt" font-family="noto_regular"  y="17"></text></g></g><g id="1e3hmg9dwq"><g transform="translate(690 960)"><path d="M 9.3,48.3 L 9.3,40.2 L 52.2,40.2 L 52.2,48.3 L 9.3,48.3" fill="rgb(3, 105, 152)"/><path d="M 9.3,48.3 L 9.3,40.2 L 52.2,40.2 L 52.2,48.3 L 9.3,48.3 Z" fill="none" stroke="rgb(255, 255, 255)" stroke-width="0.4"/><path d="M 59.4,32.9 L 59.4,41 L 52.2,48.3 L 52.2,40.2 L 9.3,40.2" fill="rgb(3, 105, 152)"  stroke-width="0.4"/><path d="M 59.4,32.9 L 59.4,41 L 52.2,48.3 L 52.2,40.2 L 9.3,40.2" fill="none" stroke="rgb(255, 255, 255)" stroke-width="0.4"/><path d="M 9.6,32.9 L 59.4,32.9" fill="rgb(3, 105, 152)"  stroke-width="0.4"/><path d="M 9.6,32.9 L 59.4,32.9" fill="none" stroke="rgb(255, 255, 255)" stroke-width="0.4"/><path d="M 52.2,40.2 L 59.4,32.9" fill="rgb(3, 105, 152)"  stroke-width="0.4"/><path d="M 52.2,40.2 L 59.4,32.9" fill="none" stroke="rgb(255, 255, 255)" stroke-width="0.4"/><path d="M 50,54.1 L 50,49.4 L 0.8,49.4 L 6.4,43.8 L 55.7,43.8 L 55.7,48.5 L 50,54.1" fill="rgb(3, 105, 152)"  stroke-width="0.4"/><path d="M -0.1,0.1 L 75.9,0.1 L 75.9,61 L -0.1,61 Z" fill="rgb(0, 0, 0)"  stroke-width="0.4"/><path d="M 50,54.1 L 50,49.4 L 0.8,49.4 L 6.4,43.8 L 55.7,43.8 L 55.7,48.5 L 50,54.1 Z" fill="none" stroke="rgb(255, 255, 255)" stroke-width="0.4"/><path d="M 50,49.4 L 50,54.1 L 0.8,54.1 L 0.8,49.4 L 50,49.4" fill="rgb(3, 105, 152)"  stroke-width="0.4"/><path d="M -0.1,0.1 L 75.9,0.1 L 75.9,61 L -0.1,61 Z" fill="rgb(0, 0, 0)"  stroke-width="0.4"/><path d="M 50,49.4 L 50,54.1 L 0.8,54.1 L 0.8,49.4 L 50,49.4 Z" fill="none" stroke="rgb(255, 255, 255)" stroke-width="0.4"/><path d="M 50,49.4 L 55.7,43.8" fill="rgb(3, 105, 152)"  stroke-width="0.4"/><path d="M 50,49.4 L 55.7,43.8" fill="none" stroke="rgb(255, 255, 255)" stroke-width="0.4"/><path d="M 52.1,40.1 L 52.1,7.8 L 9.3,7.8 L 9.3,40.1 L 52.1,40.1" fill="rgb(3, 105, 152)"  stroke-width="0.4"/><path d="M 52.1,40.1 L 52.1,7.8 L 9.3,7.8 L 9.3,40.1 L 52.1,40.1 Z" fill="none" stroke="rgb(255, 255, 255)" stroke-width="0.4"/><path d="M 52.1,40.1 L 59.4,32.8 L 59.4,0.5 L 16.6,0.5 L 9.3,7.8 L 52.1,7.8 L 52.1,40.1" fill="rgb(3, 105, 152)"  stroke-width="0.4"/><path d="M -0.1,0.1 L 75.9,0.1 L 75.9,61 L -0.1,61 Z" fill="rgb(0, 0, 0)"  stroke-width="0.4"/><path d="M 52.1,40.1 L 59.4,32.8 L 59.4,0.5 L 16.6,0.5 L 9.3,7.8 L 52.1,7.8 L 52.1,40.1 Z" fill="none" stroke="rgb(255, 255, 255)" stroke-width="0.4"/><path d="M 48.4,36.3 L 48.4,11.5 L 13,11.5 L 13,36.3 L 48.4,36.3" fill="rgb(3, 105, 152)"  stroke-width="0.4"/><path d="M 48.4,36.3 L 48.4,11.5 L 13,11.5 L 13,36.3 L 48.4,36.3 Z" fill="none" stroke="rgb(255, 255, 255)" stroke-width="0.4"/><path d="M 52.1,7.8 L 59.4,0.5" fill="rgb(3, 105, 152)"  stroke-width="0.4"/><path d="M -0.1,0.1 L 75.9,0.1 L 75.9,61 L -0.1,61 Z" fill="rgb(0, 0, 0)"  stroke-width="0.4"/><path d="M 52.1,7.8 L 59.4,0.5" fill="none" stroke="rgb(255, 255, 255)" stroke-width="0.4"/><path d="M 75.4,55.5 L 68,45.2 L 61,50.3 L 68.4,60.5 L 75.4,55.5" fill="rgb(3, 105, 152)"  stroke-width="0.4"/><path d="M -0.1,0.1 L 75.9,0.1 L 75.9,61 L -0.1,61 Z" fill="rgb(0, 0, 0)"  stroke-width="0.4"/><path d="M 75.4,55.5 L 68,45.2 L 61,50.3 L 68.4,60.5 L 75.4,55.5 Z" fill="none" stroke="rgb(255, 255, 255)" stroke-width="0.4"/><path d="M 64.6,47.6 C 63.3,45.5 61.099999999999994,46.800000000000004 61.49999999999999,43.300000000000004 C 61.99999999999999,39.7 59.599999999999994,37.300000000000004 55.199999999999996,39.300000000000004" fill="none" stroke="rgb(3, 105, 152)" stroke-width="0.4"/></g><g transform="translate(697.45, 1031.1) rotate(0, 30.5, 0)" width="61" height="55"><text text-decoration="none" x="14.5" fill="#000000" font-size="11pt" font-family="Lato"  y="16">User</text><text text-decoration="none" x="46.5" fill="#000000" font-size="11pt" font-family="Lato"  y="16"></text><text text-decoration="none" x="2" fill="#000000" font-size="11pt" font-family="Lato"  y="37">Worksta</text><text text-decoration="none" x="59" fill="#000000" font-size="11pt" font-family="Lato"  y="37"></text><text text-decoration="none" x="15" fill="#000000" font-size="11pt" font-family="Lato"  y="59">tion&#160;</text><text text-decoration="none" x="46" fill="#4b4b4b" font-size="10pt" font-family="noto_regular"  y="59"></text></g></g><g id="d1f009m6pj"><g transform="translate(85 295)"><path d="M 76.53521168231964,16.79268271923065 C 38.42253541946411,8.890243792533875 18.28169023990631,29.30487768650055 21.690140962600708,47.0853652715683 L 22.00000011920929,48.0731701374054 C -7.746478915214539,53.341462755203246 0,89.89024279117585 14.25352120399475,89.89024279117585 L 15.802816987037657,89.89024279117585 C 12.084507107734678,107.01219379901886 46.78873264789581,124.7926813840866 66.30985951423645,115.90243759155274 L 67.54929614067076,114.58536443710328 C 74.36619758605956,130.0609740018845 98.84507095813751,132.6951203107834 123.32394433021544,133.35365688800815 C 144.39436697959897,134.01219346523288 156.47887408733368,132.03658373355867 165.77464878559113,122.48780336380008 L 167.01408541202545,122.81707165241245 C 200.78873348236084,125.78048624992374 215.97183215618134,101.41463289260868 208.53521239757538,83.96341359615329 L 210.39436733722684,83.30487701892856 C 221.85915613174436,80.01219413280491 223.09859275817865,52.35365788936619 203.57746589183805,48.4024384260178 L 203.8873250484466,47.414633560180704 C 212.25352227687836,29.30487768650055 192.11267709732056,12.182926678657532 163.91549384593964,15.47560956478119 L 162.05633890628815,14.487804698944093 C 141.91549372673035,-4.609756040573118 84.59154975414275,-1.3170731544494612 77.77464830875397,17.451219296455385 L 76.53521168231964,16.79268271923065 Z" fill="none" stroke="rgb(2, 112, 159)" stroke-width="1" stroke-miterlimit="10"/></g><g transform="translate(163.25, 439.94999999999993) rotate(0, 0, 0)" width="65" height="19"><text text-decoration="none" x="0" fill="#000000" font-size="11pt" font-family="Lato"  y="17">Internet&#160;</text><text text-decoration="none" x="58" fill="#4b4b4b" font-size="10pt" font-family="noto_regular"  y="17"></text></g></g><g id="3q2irm3xls"><g transform="translate(135 545)"><path d="M 0.9426229596138,17.33333338499069 L 94.82786973714828,17.33333338499069 L 94.82786973714828,39.04761916399002 L 0.9426229596138,39.04761916399002 Z" fill="rgb(2, 112, 159)" stroke="rgb(255, 255, 255)" stroke-width="1" stroke-miterlimit="10"/><path d="M 94.82786973714828,39.04761916399002 L 94.82786973714828,17.33333338499069 L 0.9426229596138,17.33333338499069 L 24.131147766113283,0.9523809552192688 L 108.02459117174148,0.9523809552192688 L 114.0573781132698,0.9523809552192688 L 114.0573781132698,19.047619104385376 Z" fill="rgb(2, 112, 159)" stroke="rgb(255, 255, 255)" stroke-width="1" stroke-miterlimit="10"/><path d="M 94.82786973714828,17.33333338499069 L 114.0573781132698,1.1428571462631225" fill="none" stroke="rgb(255, 255, 255)" stroke-width="1" stroke-miterlimit="10"/><path d="M 13.762295210361481,28.761904847621917 C 13.76229517117738,31.10796309132077 16.59016402552872,32.574249530613336 18.852459148193887,31.401220439240102 C 19.902394000039102,30.85681572699807 20.549180537766247,29.850714300394078 20.54918051958084,28.761904847621917 C 20.54918055876494,26.41584660392307 17.721311704413605,24.94956016463049 15.459016581748433,26.122589256003728 C 14.409081729903217,26.66699396824576 13.762295192176076,27.673095394849756 13.762295210361481,28.761904847621917" fill="rgb(255, 255, 255)" stroke="rgb(255, 255, 255)" stroke-width="1" stroke-miterlimit="10"/><path d="M 17.15573786497116,28.761904847621917" fill="rgb(255, 255, 255)" stroke="rgb(255, 255, 255)" stroke-width="1" stroke-miterlimit="10"/><path d="M 28.844262564182284,28.761904847621917 C 28.844262524998182,31.10796309132077 31.67213137934952,32.574249530613336 33.93442650201469,31.401220439240102 C 34.9843613538599,30.85681572699807 35.631147891587055,29.850714300394078 35.631147873401645,28.761904847621917 C 35.63114791258575,26.41584660392307 32.80327905823441,24.94956016463049 30.54098393556924,26.122589256003728 C 29.49104908372403,26.66699396824576 28.844262545996877,27.673095394849756 28.844262564182284,28.761904847621917" fill="rgb(255, 255, 255)" stroke="rgb(255, 255, 255)" stroke-width="1" stroke-miterlimit="10"/><path d="M 32.237705218791966,28.761904847621917" fill="rgb(255, 255, 255)" stroke="rgb(255, 255, 255)" stroke-width="1" stroke-miterlimit="10"/><path d="M 43.737705326080324,28.761904847621917 C 43.73770528689622,31.10796309132077 46.56557414124756,32.574249530613336 48.827869263912724,31.401220439240102 C 49.87780411575794,30.85681572699807 50.52459065348509,29.850714300394078 50.52459063529968,28.761904847621917 C 50.52459067448379,26.41584660392307 47.696721820132446,24.94956016463049 45.43442669746728,26.122589256003728 C 44.384491845622065,26.66699396824576 43.73770530789491,27.673095394849756 43.737705326080324,28.761904847621917" fill="rgb(255, 255, 255)" stroke="rgb(255, 255, 255)" stroke-width="1" stroke-miterlimit="10"/><path d="M 47.13114798069,28.761904847621917" fill="rgb(255, 255, 255)" stroke="rgb(255, 255, 255)" stroke-width="1" stroke-miterlimit="10"/><path d="M 58.819672679901124,28.761904847621917 C 58.81967258585928,31.107963091320762 61.647541405924535,32.57424958459368 63.90983655601857,31.401220535887113 C 64.95977146469083,30.856815820581755 65.60655803276545,29.850714346124075 65.60655798912047,28.761904847621917 C 65.60655808316231,26.41584660392307 62.77868926309707,24.949560110650157 60.51639411300304,26.12258915935672 C 59.466459204330775,26.66699387466208 58.81967263625615,27.67309534911976 58.819672679901124,28.761904847621917" fill="rgb(255, 255, 255)" stroke="rgb(255, 255, 255)" stroke-width="1" stroke-miterlimit="10"/><path d="M 62.2131153345108,28.761904847621917" fill="rgb(255, 255, 255)" stroke="rgb(255, 255, 255)" stroke-width="1" stroke-miterlimit="10"/><path d="M 73.71311544179916,28.761904847621917 C 73.71311540261506,31.10796309132077 76.54098425696641,32.574249530613336 78.80327937963159,31.401220439240102 C 79.8532142314768,30.85681572699807 80.50000076920394,29.850714300394078 80.50000075101853,28.761904847621917 C 80.50000079020263,26.41584660392307 77.6721319358513,24.94956016463049 75.40983681318612,26.122589256003728 C 74.35990196134091,26.66699396824576 73.71311542361376,27.673095394849756 73.71311544179916,28.761904847621917" fill="rgb(255, 255, 255)" stroke="rgb(255, 255, 255)" stroke-width="1" stroke-miterlimit="10"/><path d="M 77.10655809640885,28.761904847621917" fill="rgb(255, 255, 255)" stroke="rgb(255, 255, 255)" stroke-width="1" stroke-miterlimit="10"/></g><g transform="translate(135, 595) rotate(0, 57.5, 0)" width="115" height="37"><text text-decoration="none" x="6.5" fill="#000000" font-size="11pt" font-family="Lato"  y="16">192.168.100.1</text><text text-decoration="none" x="108.5" fill="#000000" font-size="11pt" font-family="Lato"  y="16"></text><text text-decoration="none" x="43.5" fill="#000000" font-size="11pt" font-family="Lato"  y="38">/24&#160;</text><text text-decoration="none" x="71.5" fill="#4b4b4b" font-size="10pt" font-family="noto_regular"  y="38"></text></g></g><g id="5lv5bircyl"><g><path d="M 195,430 L 195,545" fill="none" stroke="#a0a0a0" stroke-width="1.5" stroke-linecap="round" stroke-linejoin="round"/></g></g><g id="61cxsnepg0"><mask id="daf35" x="502" y="377" width="231" height="361" maskUnits="userSpaceOnUse"><rect x="502" y="377" width="231" height="361" fill="white" /><rect x="613.5814439140813" y="369.5" width="90" height="41" fill="black" /></mask><g mask="url(#daf35)"><path d="M 515,725 L 515,390 L 720,390" fill="none" stroke="#a0a0a0" stroke-width="1.5" stroke-linecap="round" stroke-linejoin="round"/></g><g transform="translate(616.5814439140813, 372.5)" width="84" height="35"><text text-decoration="none" x="6" fill="rgb(75, 75, 75)" font-size="10pt" font-family="Lato"  y="14">192.168.0.13</text><text text-decoration="none" x="78" fill="rgb(75, 75, 75)" font-size="10pt" font-family="Lato"  y="14"></text><text text-decoration="none" x="32.5" fill="rgb(75, 75, 75)" font-size="10pt" font-family="Lato"  y="36">/24</text><text text-decoration="none" x="51.5" fill="#4b4b4b" font-size="10pt" font-family="noto_regular"  y="36"></text></g></g><g id="3f3dz7ax26"><mask id="f1fcd" x="502" y="482" width="406" height="256" maskUnits="userSpaceOnUse"><rect x="502" y="482" width="406" height="256" fill="white" /><rect x="761.1117809595579" y="466.5" width="98" height="57" fill="black" /></mask><g mask="url(#f1fcd)"><path d="M 515,725 L 515,495 L 895,495" fill="none" stroke="#a0a0a0" stroke-width="1.5" stroke-linecap="round" stroke-linejoin="round"/></g><g transform="translate(764.1117809595579, 469.5)" width="92" height="51"><text text-decoration="none" x="6.5" fill="rgb(75, 75, 75)" font-size="10pt" font-family="Lato"  y="14">192.168.0.182</text><text text-decoration="none" x="85.5" fill="rgb(75, 75, 75)" font-size="10pt" font-family="Lato"  y="14"></text><text text-decoration="none" x="36.5" fill="rgb(75, 75, 75)" font-size="10pt" font-family="Lato"  y="33">/24</text><text text-decoration="none" x="55.5" fill="rgb(75, 75, 75)" font-size="10pt" font-family="Lato"  y="33"></text><text text-decoration="none" x="46" fill="#4b4b4b" font-size="10pt" font-family="noto_regular"  y="55"></text></g></g><g id="1efbproubv"><g transform="translate(895 465)"><path d="M 34.3,10.8 L 0.2,10.8 L 0.2,59.8 L 34.3,59.8" fill="rgb(0, 126, 186)" stroke="rgb(255, 255, 255)" stroke-width="0.4"/><path d="M 34.3,59.8 L 45.2,49 L 45.2,0 L 11.1,0 L 0.2,10.8 L 34.3,10.8 Z" fill="rgb(0, 126, 186)" stroke="rgb(255, 255, 255)" stroke-width="0.4"/><path d="M 34.3,10.8 L 45.2,0" fill="none" stroke="rgb(255, 255, 255)" stroke-width="0.4"/><path d="M 0.8,24.3 L 34,24.3 M 0.8,39.9 L 34,39.9 M 12,33.6 L 21.7,33.6 M 12,30.7 L 21.7,30.7 M 25.4,36.9 L 25.4,27.599999999999998 L 8.1,27.599999999999998 L 8.1,36.9 L 25.4,36.9 L 25.4,36.9 Z" fill="none" stroke="rgb(255, 255, 255)" stroke-width="0.4"/></g><g transform="translate(900.725, 535.6) rotate(0, 17, 0)" width="34" height="55"><text text-decoration="none" x="1" fill="#000000" font-size="11pt" font-family="Lato"  y="16">Appl</text><text text-decoration="none" x="33" fill="#000000" font-size="11pt" font-family="Lato"  y="16"></text><text text-decoration="none" x="3" fill="#000000" font-size="11pt" font-family="Lato"  y="37">icati</text><text text-decoration="none" x="31" fill="#000000" font-size="11pt" font-family="Lato"  y="37"></text><text text-decoration="none" x="6" fill="#000000" font-size="11pt" font-family="Lato"  y="59">on&#160;</text><text text-decoration="none" x="28" fill="#4b4b4b" font-size="10pt" font-family="noto_regular"  y="59"></text></g></g><g id="1fetksxhd3"><mask id="7023d" x="502" y="667" width="396" height="71" maskUnits="userSpaceOnUse"><rect x="502" y="667" width="396" height="71" fill="white" /><rect x="749.584499461787" y="659.5" width="90" height="41" fill="black" /></mask><g mask="url(#7023d)"><path d="M 515,725 L 515,680 L 885,680" fill="none" stroke="#a0a0a0" stroke-width="1.5" stroke-linecap="round" stroke-linejoin="round"/></g><g transform="translate(752.584499461787, 662.5)" width="84" height="35"><text text-decoration="none" x="6" fill="rgb(75, 75, 75)" font-size="10pt" font-family="Lato"  y="14">192.168.0.80</text><text text-decoration="none" x="78" fill="rgb(75, 75, 75)" font-size="10pt" font-family="Lato"  y="14"></text><text text-decoration="none" x="31" fill="rgb(75, 75, 75)" font-size="10pt" font-family="Lato"  y="36">/24&#160;</text><text text-decoration="none" x="53" fill="#4b4b4b" font-size="10pt" font-family="noto_regular"  y="36"></text></g></g><g id="33hajzxbnc"><mask id="49396" x="502" y="772" width="181" height="111" maskUnits="userSpaceOnUse"><rect x="502" y="772" width="181" height="111" fill="white" /><rect x="591" y="849.5" width="98" height="41" fill="black" /></mask><g mask="url(#49396)"><path d="M 515,785 L 515,870 L 670,870" fill="none" stroke="#a0a0a0" stroke-width="1.5" stroke-linecap="round" stroke-linejoin="round"/></g><g transform="translate(594, 852.5)" width="92" height="35"><text text-decoration="none" x="6.5" fill="rgb(75, 75, 75)" font-size="10pt" font-family="Lato"  y="14">192.168.200.2</text><text text-decoration="none" x="85.5" fill="rgb(75, 75, 75)" font-size="10pt" font-family="Lato"  y="14"></text><text text-decoration="none" x="35" fill="rgb(75, 75, 75)" font-size="10pt" font-family="Lato"  y="36">/24&#160;</text><text text-decoration="none" x="57" fill="#4b4b4b" font-size="10pt" font-family="noto_regular"  y="36"></text></g></g><g id="1gh4eejyav"><mask id="a9b10" x="502" y="772" width="201" height="231" maskUnits="userSpaceOnUse"><rect x="502" y="772" width="201" height="231" fill="white" /><rect x="608.3987414694674" y="969.5" width="98" height="41" fill="black" /></mask><g mask="url(#a9b10)"><path d="M 515,785 L 515,990 L 690,990" fill="none" stroke="#a0a0a0" stroke-width="1.5" stroke-linecap="round" stroke-linejoin="round"/></g><g transform="translate(611.3987414694674, 972.5)" width="92" height="35"><text text-decoration="none" x="6.5" fill="rgb(75, 75, 75)" font-size="10pt" font-family="Lato"  y="14">192.168.200.3</text><text text-decoration="none" x="85.5" fill="rgb(75, 75, 75)" font-size="10pt" font-family="Lato"  y="14"></text><text text-decoration="none" x="35" fill="rgb(75, 75, 75)" font-size="10pt" font-family="Lato"  y="36">/24&#160;</text><text text-decoration="none" x="57" fill="#4b4b4b" font-size="10pt" font-family="noto_regular"  y="36"></text></g></g><g id="1urcib3sl8"><g transform="translate(705 550)"><path d="M 85.00000202655792,26.11111011505127 L 64.54237442016601,26.11111011505127 L 64.54237442016601,12.777777290344238 L 51.576272416114804,0 L 20.457627606391906,0 L 20.457627606391906,26.11111011505127 L 0,26.11111011505127 L 0,59.444442176818846 L 20.457627606391906,59.444442176818846 L 20.457627606391906,64.99999752044677 L 64.54237442016601,64.99999752044677 L 64.54237442016601,59.444442176818846 L 85.00000202655792,59.444442176818846 L 85.00000202655792,26.11111011505127 Z M 51.28813681602478,3.0555554389953614 L 60.79661161899567,12.499999523162842 L 51.28813681602478,12.499999523162842 L 51.28813681602478,3.0555554389953614 Z M 23.05084800720215,2.222222137451172 L 48.983052015304565,2.222222137451172 L 48.983052015304565,14.722221660614013 L 62.237289619445804,14.722221660614013 L 62.237289619445804,24.999999046325684 L 23.05084800720215,24.999999046325684 L 23.05084800720215,2.222222137451172 Z M 62.237289619445804,62.77777538299561 L 23.05084800720215,62.77777538299561 L 23.05084800720215,59.722219944000244 L 23.05084800720215,59.722219944000244 L 23.05084800720215,43.33333168029785 L 62.237289619445804,43.33333168029785 L 62.237289619445804,57.77777557373047 L 62.237289619445804,57.77777557373047 L 62.237289619445804,62.77777538299561 Z M 74.91525602340698,40.83333177566528 C 72.32203562259674,40.83333177566528 70.30508642196655,38.88888740539551 70.30508642196655,36.38888750076294 C 70.30508642196655,33.88888759613037 72.32203562259673,31.944443225860596 74.91525602340698,31.944443225860596 C 77.50847642421722,31.944443225860596 79.52542562484741,33.88888759613037 79.52542562484741,36.38888750076294 C 79.23729002475739,38.88888740539551 77.2203408241272,40.83333177566528 74.91525602340698,40.83333177566528 Z" fill="rgb(126, 126, 126)"/></g><g transform="translate(725.45, 624.95) rotate(0, 0, 0)" width="46" height="19"><text text-decoration="none" x="0" fill="#4b4b4b" font-size="11pt" font-family="Lato"  y="17">H282&#160;</text><text text-decoration="none" x="42" fill="#4b4b4b" font-size="10pt" font-family="noto_regular"  y="17"></text></g></g><g id="1jl9l6jh7n"><mask id="dd680" x="502" y="567" width="216" height="171" maskUnits="userSpaceOnUse"><rect x="502" y="567" width="216" height="171" fill="white" /><rect x="587.0139935414425" y="559.5" width="90" height="41" fill="black" /></mask><g mask="url(#dd680)"><path d="M 515,725 L 515,580 L 705,580" fill="none" stroke="#a0a0a0" stroke-width="1.5" stroke-linecap="round" stroke-linejoin="round"/></g><g transform="translate(590.0139935414425, 562.5)" width="84" height="35"><text text-decoration="none" x="6" fill="rgb(75, 75, 75)" font-size="10pt" font-family="Lato"  y="14">192.168.0.81</text><text text-decoration="none" x="78" fill="rgb(75, 75, 75)" font-size="10pt" font-family="Lato"  y="14"></text><text text-decoration="none" x="32.5" fill="rgb(75, 75, 75)" font-size="10pt" font-family="Lato"  y="36">/24</text><text text-decoration="none" x="51.5" fill="#4b4b4b" font-size="10pt" font-family="noto_regular"  y="36"></text></g></g><g id="1mkxkc4tc4"><g transform="translate(515 705)"><rect x="0" y="0" width="129.99801635742188" height="43.729736328125" fill="rgba(255,255,255,0.01)" stroke="rgba(255,255,255,0.01)" stroke-width="NaN" stroke-linecap="round" stroke-linejoin="round"/></g><g transform="translate(533.9990081787109, 709.3648681640625) rotate(0, 46, 17.5)" width="92" height="35"><text text-decoration="none" x="6.5" fill="rgb(75, 75, 75)" font-size="10pt" font-family="Lato"  y="14">192.168.0.254</text><text text-decoration="none" x="85.5" fill="rgb(75, 75, 75)" font-size="10pt" font-family="Lato"  y="14"></text><text text-decoration="none" x="36.5" fill="rgb(75, 75, 75)" font-size="10pt" font-family="Lato"  y="36">/24</text><text text-decoration="none" x="55.5" fill="#4b4b4b" font-size="10pt" font-family="noto_regular"  y="36"></text></g></g><g id="1h661uxdem"><g transform="translate(500 785)"><rect x="0" y="0" width="129.99801635742188" height="43.729736328125" fill="rgba(255,255,255,0.01)" stroke="rgba(255,255,255,0.01)" stroke-width="NaN" stroke-linecap="round" stroke-linejoin="round"/></g><g transform="translate(510.99900817871094, 789.3648681640625) rotate(0, 54, 17.5)" width="108" height="35"><text text-decoration="none" x="7.5" fill="rgb(75, 75, 75)" font-size="10pt" font-family="Lato"  y="14">192.168.200.254</text><text text-decoration="none" x="100.5" fill="rgb(75, 75, 75)" font-size="10pt" font-family="Lato"  y="14"></text><text text-decoration="none" x="44.5" fill="rgb(75, 75, 75)" font-size="10pt" font-family="Lato"  y="36">/24</text><text text-decoration="none" x="63.5" fill="#4b4b4b" font-size="10pt" font-family="noto_regular"  y="36"></text></g></g></svg>